<?xml version="1.0" encoding="utf-8"?>
<!-- Generator: Adobe Illustrator 15.1.0, SVG Export Plug-In . SVG Version: 6.00 Build 0)  -->
<!DOCTYPE svg PUBLIC "-//W3C//DTD SVG 1.1 Tiny//EN" "http://www.w3.org/Graphics/SVG/1.1/DTD/svg11-tiny.dtd">
<svg version="1.1" baseProfile="tiny" id="Layer_1" xmlns="http://www.w3.org/2000/svg" xmlns:xlink="http://www.w3.org/1999/xlink"
	 x="0px" y="0px" width="320px" height="320px" viewBox="0 0 320 320" xml:space="preserve">
<g>
	<path fill="none" stroke="#F2F2F2" stroke-width="1.5" stroke-miterlimit="10" d="M313.08,162.53
		c0,84.51-68.52,153.04-153.04,153.04C75.52,315.57,7,247.04,7,162.53C7,78.01,75.52,9.49,160.04,9.49
		C244.56,9.49,313.08,78,313.08,162.53z"/>
	
		<rect x="36.21" y="37.76" fill="none" stroke="#F2F2F2" stroke-width="1.5" stroke-miterlimit="10" width="248.77" height="254.74"/>
	<polygon fill="none" stroke="#F2F2F2" stroke-width="1.5" stroke-miterlimit="10" points="16.36,256.42 160.36,7 304.35,256.42 	
		"/>
	<path fill="none" stroke="#F2F2F2" stroke-width="1.5" stroke-miterlimit="10" d="M125.76,161.65c0.26-1.24,0.43-2.51,0.54-3.77
		c0.24-3,0.38-6,0.66-8.99c0.13-1.36,0.5-2.69,0.74-4.04c0.14-0.77,0.24-1.55,0.36-2.33c0.07,0,0.14,0,0.21,0
		c0.06,0.19,0.16,0.38,0.18,0.58c0.16,1.46,0.34,2.91,0.43,4.37c0.27,4.17,0.5,8.34,0.74,12.52c0.04,0.7,0.12,1.42,0.01,2.09
		c-0.22,1.26-0.73,4.47-0.69,4.96c0.15,1.94,0.37,3.88,1.44,5.58c0.89,1.4,1.29,2.88,1.15,4.54c-0.16,1.86,0.54,3.44,1.74,4.83
		c0.15,0.18,0.35,0.4,0.36,0.61c0.12,2.06,0.25,4.17-0.44,6.14c-0.91,2.6-2.06,5.12-3.06,7.69c-0.68,1.73-0.97,3.53-0.98,5.39
		c-0.02,1.59-0.09,3.2-0.34,4.76c-0.36,2.23-0.91,4.43-1.37,6.64c-0.19,0.93-0.27,1.89-0.53,2.8c-0.31,1.07-0.97,2.07-1.12,3.15
		c-0.42,2.86-0.77,5.73-0.91,8.62c-0.1,1.96,0.19,3.9-0.31,5.89c-0.41,1.62-0.43,3.37-0.39,5.05c0.04,2.48,0.25,4.97,0.45,7.44
		c0.16,2.02,0.38,4.04,0.61,6.05c0.26,2.25,0.57,4.49,0.86,6.73c0.26,1.99,0.45,3.99,0.8,5.96c0.5,2.75,1.13,5.47,1.68,8.22"/>
	<path fill="none" stroke="#F2F2F2" stroke-width="1.5" stroke-miterlimit="10" d="M218.36,160.02c0-0.46,0.04-0.93-0.01-1.38
		c-0.14-1.43-0.3-2.86-0.48-4.28c-0.38-3.01-0.71-6.03-1.2-9.03c-0.36-2.16-0.39-4.27,0.24-6.36c0.47-1.56,0.84-3.1,0.93-4.76
		c0.17-3.34-0.57-6.47-1.85-9.49c-1.2-2.84-2.54-5.62-3.77-8.45c-0.73-1.69-1.58-3.34-3-4.48c-2.18-1.76-4.69-2.98-7.5-3.5
		c-1.06-0.19-2.2-0.28-3.13-0.75c-1.13-0.58-2.3-0.91-3.51-1.16c-0.18-0.04-0.37-0.1-0.54-0.17c-1.83-0.79-3.66-1.6-5.51-2.38
		c-0.7-0.29-1.41-0.59-2.14-0.74c-1.82-0.38-3.66-0.68-5.5-1c-2.42-0.42-3.54-2.3-4.65-4.16c-0.45-0.76-0.98-1.56-1.1-2.4
		c-0.34-2.37-0.49-4.78-0.69-7.17c-0.08-0.94,0.33-1.65,1.07-2.22c0.96-0.74,1.92-1.49,2.84-2.27c0.92-0.78,1.5-1.82,1.54-3
		c0.06-1.86-0.03-3.73-0.06-5.6c-0.01-0.84-0.08-1.68-0.04-2.52c0.19-3.31,0.17-6.6-1.03-9.76c-0.62-1.63-0.8-3.28-0.44-5.01
		c0.11-0.53-0.09-1.16-0.25-1.71c-0.22-0.78-0.57-1.52-0.8-2.3c-0.3-1.02-0.49-2.08-0.8-3.1c-0.21-0.7-0.56-1.36-0.83-2.04
		c-0.7-1.76-1.53-3.45-2.79-4.87c-0.67-0.75-1.41-1.49-2.26-2.02c-1.13-0.71-2.38-1.21-3.58-1.78c-1.78-0.86-3.69-1.24-5.65-1.24
		c-2.28-0.01-4.54,0.22-6.74,0.88c-0.96,0.29-2,0.34-2.9,0.75c-2.91,1.32-5.57,3-7.95,5.21c-1.98,1.85-3.29,4-4.17,6.47
		c-3.28,9.2-1.65,17.41,5.08,24.54c0.78,0.83,1.66,1.6,2.31,2.52c1.03,1.47,1.34,3.24,1.51,4.99c0.24,2.57,0.44,5.14,0.53,7.72
		c0.08,2.34,0.07,4.69-1.56,6.66c-1.08,1.3-2.21,2.48-3.89,2.97c-1.54,0.46-3.11,0.85-4.61,1.42c-1.63,0.62-3.23,1.35-4.78,2.15
		c-1.16,0.6-2.22,1.31-3.6,1.42c-1.02,0.08-2.06,0.39-3,0.8c-1.21,0.52-2.42,0.87-3.72,0.98c-1.2,0.1-2.32,0.48-3.27,1.28
		c-0.69,0.57-1.38,1.12-2.09,1.65c-1.92,1.43-3.17,3.38-4.17,5.49c-0.66,1.39-1.15,2.86-1.74,4.29c-1.04,2.54-2.21,5.04-2.82,7.73
		c0.01,0.11,0.03,0.2,0.03,0.31c0,0.71-0.17,1.4-0.45,2.04c-0.11,0.62-0.24,1.24-0.27,1.87c-0.19,3.14-0.1,6.23,1.27,9.17
		c0.3,0.65,0.39,1.48,0.31,2.2c-0.17,1.64-0.51,3.26-0.75,4.88c-0.27,1.79-0.56,3.59-0.77,5.39c-0.22,1.99-0.35,3.99-0.52,5.99"/>
	<path fill="none" stroke="#F2F2F2" stroke-width="1.5" stroke-miterlimit="10" d="M202.21,274.61c0.83-1.01,0.58-2.29,0.8-3.44
		c0.46-2.44,0.79-4.91,1.11-7.37c0.29-2.2,0.51-4.41,0.72-6.62c0.25-2.72,0.46-5.44,0.65-8.16c0.21-2.98,0.24-5.97,0.6-8.93
		c0.26-2.11,0.04-4.12-0.29-6.17c-0.26-1.6-0.34-3.23-0.38-4.86c-0.04-1.64,0.3-3.32,0.03-4.91c-0.45-2.68-1.25-5.3-1.9-7.94
		c-0.45-1.84-0.99-3.66-1.32-5.52c-0.31-1.78-0.9-3.43-1.78-4.98c-0.34-0.6-0.34-1.1-0.16-1.75c0.25-0.9,0.44-1.86,0.4-2.78
		c-0.02-0.51,0.1-0.97,0.26-1.4c-0.46-1.38-0.88-2.81-1.3-4.29c-0.11-0.25-0.19-0.51-0.23-0.82c-0.18-1.36-0.64-2.62-1.74-3.56
		c-0.14-0.12-0.23-0.35-0.26-0.55c-0.26-1.6-0.5-3.21-0.75-4.81c-0.16-0.2-0.32-0.39-0.45-0.62c-0.93-1.59-0.83-3.51,0.04-5.02
		c0.09-1.16,0.18-2.24,0.32-3.31c0.21-1.61,0.53-3.21,0.79-4.81c0.41-2.47,0.82-4.94,1.23-7.41c0.27-1.59,0.7-3.16,0.81-4.76
		c0.25-3.78,1.02-7.52,0.82-11.34c-0.01-0.15,0.11-0.31,0.25-0.68c0.57,1.41,0.78,2.65,0.68,3.92c-0.29,3.85,0.53,7.53,1.52,11.2"/>
	<path fill="none" stroke="#F2F2F2" stroke-width="1.5" stroke-miterlimit="10" d="M160.69,274.31c-0.03-1.67-0.3-3.32,0.14-5.02
		c0.47-1.78,0.65-3.64,0.88-5.48c0.26-2.05,0.47-4.11,0.64-6.17c0.1-1.18,0-2.39,0.12-3.57c0.18-1.76,0.46-3.52,0.72-5.27
		c0.29-1.92,0.65-3.82,0.89-5.74c0.25-1.99,0.39-3.98,0.58-5.98l0.08-0.91c0.35,0.85,0.52,1.7,0.65,2.55
		c0.21,1.32,0.4,2.65,0.59,3.97c0.25,1.78,0.55,3.55,0.72,5.33c0.22,2.35,0.23,4.73,0.54,7.07c0.32,2.4,0.84,4.77,1.37,7.14
		c0.83,3.67,1.72,7.33,2.63,10.98c0.17,0.68,0.25,1.56,1.34,1.52"/>
</g>
</svg>
